<?xml version="1.0" encoding="utf-8"?>
<!-- Generator: Adobe Illustrator 24.1.1, SVG Export Plug-In . SVG Version: 6.00 Build 0)  -->
<svg version="1.1" xmlns="http://www.w3.org/2000/svg" xmlns:xlink="http://www.w3.org/1999/xlink" x="0px" y="0px"
	 viewBox="0 0 1024 400" style="enable-background:new 0 0 1024 400;" xml:space="preserve">
<style type="text/css">
	.st0{fill:url(#SVGID_1_);}
	.st1{fill:#FFFFFF;}
	.st2{font-family:'Poppins-Thin';}
	.st3{font-size:47px;}
	.st4{font-size:59px;}
	.st5{fill:url(#SVGID_2_);stroke:#FFFFFF;stroke-width:2;stroke-miterlimit:10;}
</style>
<g id="Layer_5">
	<g>
		<linearGradient id="SVGID_1_" gradientUnits="userSpaceOnUse" x1="1.5" y1="200.5" x2="1025.5" y2="200.5">
			<stop  offset="0" style="stop-color:#CCE0F4"/>
			<stop  offset="0.0641" style="stop-color:#C3DCF2"/>
			<stop  offset="0.1706" style="stop-color:#A9D2EE"/>
			<stop  offset="0.3066" style="stop-color:#80C2E7"/>
			<stop  offset="0.4649" style="stop-color:#47ACDE"/>
			<stop  offset="0.5674" style="stop-color:#1E9CD7"/>
			<stop  offset="0.8652" style="stop-color:#0075BE"/>
			<stop  offset="0.9944" style="stop-color:#005B97"/>
		</linearGradient>
		<rect x="1.5" y="26.5" class="st0" width="1024" height="348"/>
		<g>
			<g>
				<g>
					<g>
						<path class="st1" d="M1024.83,374.5c0.09,1.44,0.28,0.63,0.24-3.35l-0.33-2.83L1024.83,374.5z"/>
						<path class="st1" d="M1025.45,347.72c-0.16-4.68-0.44-10.08-0.75-7.05c0.32,4.64,0.19,5.76,0.56,10.75
							c0.04,3.98-0.11,6.95-0.23,6.28c0.08,1.41-0.07,6.19,0.14,8.33c0.26-5.18,0.27-11.75,0.05-18.6
							C1025.3,345.96,1025.39,347.38,1025.45,347.72z"/>
						<path class="st1" d="M957.59,26.04l2.51,0.04C959.41,26.06,958.55,26.05,957.59,26.04z"/>
						<path class="st1" d="M716.48,25.85c1.84-0.01,2.6-0.04,2.7-0.07C717.47,25.81,716.07,25.83,716.48,25.85z"/>
						<path class="st1" d="M675.32,25.49c0.88,0.01,1.63,0.02,2.43,0.02C676.82,25.48,675.89,25.46,675.32,25.49z"/>
						<path class="st1" d="M957.59,26.04l-6.44-0.1C950.69,26.04,954.45,26.01,957.59,26.04z"/>
						<path class="st1" d="M1024.65,294.06c0.02,1.35,0.05,2.47,0.09,3.5c-0.01-1.11-0.02-2.18-0.04-3.29
							C1024.68,294.21,1024.67,294.16,1024.65,294.06z"/>
						<path class="st1" d="M1026.23,64.87l0,1.96c0.04,0.58,0.08,1.12,0.13,1.63L1026.23,64.87z"/>
						<path class="st1" d="M1026.28,146.44c0.01-1.84-0.27-2.49-0.39-3.19c0.12,1.04,0.17,2.41,0.19,4.02
							C1026.14,147.3,1026.2,147.06,1026.28,146.44z"/>
						<path class="st1" d="M1025.79,275.78l0.04,2.3C1025.82,277.48,1025.8,276.47,1025.79,275.78z"/>
						<path class="st1" d="M1005.49,25.71c-0.14-0.04-0.43-0.08-0.74-0.1C1004.75,25.64,1005.04,25.68,1005.49,25.71z"/>
						<path class="st1" d="M930.95,373.18c-0.07,0.02,0.03,0.03,0.01,0.05C931.43,373.2,931.58,373.18,930.95,373.18z"/>
						<path class="st1" d="M1025.5,374.57l-1.31,0.02c-0.14,0.05-0.28,0.11-0.28,0.16L1025.5,374.57z"/>
						<path class="st1" d="M599.98,25.13c0.15,0,0.2,0,0.33,0.01C602.3,25.1,601.18,25.11,599.98,25.13z"/>
						<path class="st1" d="M0.34,119.62c0.25-7.83,0.32,12.75,0.6,0.96C0.83,121.67,0.5,109.85,0.34,119.62z"/>
						<path class="st1" d="M1024.69,291.95c0-1.1,0-2.22,0-3.34C1024.68,290.13,1024.69,291.15,1024.69,291.95z"/>
						<path class="st1" d="M0.94,120.57L0.94,120.57l0.03-1.22C0.96,119.86,0.95,120.14,0.94,120.57z"/>
						<path class="st1" d="M426.4,25.3c0.36,0.05,1.05,0.09,1.77,0.12C428.11,25.39,427.71,25.36,426.4,25.3z"/>
						<path class="st1" d="M555.71,25.7l-3.2-0.04C553.78,25.68,554.81,25.69,555.71,25.7z"/>
						<path class="st1" d="M359.26,25.7c-1.74-0.02-2.33-0.06-4.71-0.02c0.22,0.01,0.44,0.02,0.72,0.03
							C356.13,25.67,357.27,25.65,359.26,25.7z"/>
						<path class="st1" d="M289.37,25.7c0.37,0.02,0.86,0.04,1.29,0.06c0.69,0,1.5-0.01,2.21-0.02L289.37,25.7z"/>
						<path class="st1" d="M718.56,373.32c1.53,0.08,2.48,0.17,3.23,0.25C720.71,373.37,730.98,373.3,718.56,373.32z"/>
						<path class="st1" d="M1024.81,294.02c-0.07-0.41-0.11-1.01-0.12-2.08c0.01,0.8,0.01,1.57,0.02,2.33
							C1024.74,294.48,1024.78,294.52,1024.81,294.02z"/>
						<path class="st1" d="M356.41,27.91l-11.1-0.04C348.42,27.88,352.45,27.9,356.41,27.91z"/>
						<path class="st1" d="M217.2,373.36l2.55-0.03C218.76,373.32,217.86,373.32,217.2,373.36z"/>
						<path class="st1" d="M312.36,27.91c-1.98-0.1-4.08-0.16-6.25-0.19c-0.46,0.02-0.98,0.04-1.29,0.07L312.36,27.91z"/>
						<path class="st1" d="M721.81,373.57c-0.02,0-0.02,0-0.02,0S721.79,373.57,721.81,373.57z"/>
						<path class="st1" d="M794.95,372.9c-10.58-0.01-4.97,0.36-7.21,0.57c-12.63,0.11-5.84-0.27-10.14-0.46
							c-7.89,0.1-13.93,0.44-19.81,0.42c-0.44-0.06-1.58-0.08-0.24-0.16c-8.34,0.29-24.75,0.01-34.46,0.38
							c-0.72-0.03-1.09-0.06-1.27-0.09c1.57,0.19,1.81,0.37,1.49,0.51c-4.74,0.01-8.8,0.23-10.59-0.01
							c2.91,0.01,3.15-0.09,4.51-0.17l-4.97,0.1c-4.47-0.35,6.78-0.12,6.78-0.38c-9.69,0.11-20.99,0.4-28.41,0.3
							c-1.55-0.34,17.36-0.11,7.46-0.42l11.49,0.13c-8.78-0.54,6.98,0.04-1.09-0.54c-15.12-0.1-16.91,0.17-32,0.07
							c-3.4,0.19,1.12,0.28-2.27,0.47c-21.44,0.34-16.88-0.85-32.64-0.4c-4.08,0.23-5.66,0.66-16.88,0.43l3.83-0.38
							c-14.64-0.04-8.36,0.55-23.69,0.29c2.72-0.15,11.51-0.13,9.29-0.17c-9.93-0.3-7.03,0.22-14.66,0.22l-1.58-0.34
							c-15.59,0.11-32.75,0.24-50.02,0.36c0.96-0.1,3.91-0.21-0.13-0.31c-21.77,0.17-46.47-0.04-67.47-0.24l-8.02,0.29
							c-1.87,0-3.46-0.13-1.44-0.19c-8.18-0.11-0.42,0.19-4.36,0.3c-4.66,0.02-6.15-0.17-3.2-0.26
							c-14.44,0.25-41.14,0.54-56.36,0.22l2.97-0.09c-11.85-0.12-13.37,0.6-24.36,0.33l2.11-0.05c-25.72-0.13-54.14,0.14-73.76-0.3
							c-3.73,0.42-25.45-0.19-27.11,0.4c-14.68-0.29-10.48-0.4-31.16-0.59c-5.52-0.03-8.23,0.37-15.06,0.43l-0.17-0.31l-9.27,0.32
							l-4.93-0.37l-6.41,0.08c2.55,0.02,5.42,0.14,5.04,0.23c-5,0.07-11.1,0.02-15.98-0.07c-2.44-0.06-4.57-0.11-6.11-0.15
							c-1.54-0.05-2.48-0.1-2.55-0.14l-23.67,0.26c0.53-0.12,4.49-0.17,7.62-0.25c-12.63,0.31-2.3-0.32-13.87-0.04
							c1.55,0.07-0.84,0.18-1.1,0.25c-5.77-0.19-18.91-0.19-28.63-0.11l1.87-0.21c-17.56,0.03-37.01,0.06-56.71,0.1
							c7.07,0.1,5.44,0.47-0.33,0.5L83,373.35c-3.73,0.2,6.03,0.12-1.62,0.37c-7.36-0.04-4.95-0.37-0.72-0.48l-8.95,0.11
							c-0.53-0.1,1.57-0.15,2.12-0.27c-3.67,0.2-15.45-0.33-20.74,0.02l-0.5-0.1c-19.7,0.06-28.63,0.08-44.67,0.13
							c-0.1,0.09-0.87,0.15-2.03,0.19c-1.03,0.04-3.19,0.07-3.31,0.1c-0.02-0.3-0.04-0.34-0.06-1.42c-0.03-0.84-0.06-1.68-0.09-2.48
							c0.09-11.79,0.31-24.88,0.29-39.08c-0.14-9.98-0.24-2.92-0.41-7.4c0.26-0.73,0.23-14.92,0.42-7.56
							c-0.04-17.05-0.05-21.78-0.26-43.34c-0.1,2.34-0.15,4.97-0.24,3.61c-0.04-3.91,0.11-8.9,0.23-8.34l0.03,1.03
							c-0.38-24.21,0.75-55.87,0.21-75.14l0.03,1.08l-0.28-19.99c0.04-9.2,0.19,5.52,0.35-1.29c-0.43-21.56,0.06-34.07-0.22-51.82
							c0.76-13.74-0.05-48.77,0.43-67.32l-0.18,1.07c-0.17-4.79,0.1-5.8,0.14-9.33c-0.14,0.5-0.16,5.2-0.26,2.22
							c-0.02-6.67-0.04-13.41-0.05-20.28c8.16,0.02,16.39,0.04,24.68,0.05c8.67,0.04,17.38,0.09,26.1,0.13
							c17.44,0.1,34.93,0.19,52.14,0.29c15.23,0.05,8.64-0.92,27.84-0.5l-5.45,0.33c30.74-0.4,62.85,0.01,92.94-0.32
							c-1.79,0.08-1.84,0.18-4.78,0.17c3.18,0.12,9.05,0.12,14.15,0.07c2.55-0.04,4.9-0.08,6.62-0.11c0.86-0.03,1.56-0.05,2.06-0.07
							c0.49-0.02,0.77-0.05,0.78-0.07c4.69,0.02,1.09,0.18,3.97,0.28c6.38,0.14,16-0.31,19.39-0.07c0.58,0.04-1.79,0.08-2.96,0.1
							c4.15-0.12,19.36,0.03,15.38-0.25c11.29,0.13,21.6-0.12,30.61,0.04c5.87-0.31,19.33,0.15,21.2-0.29
							c-0.81,0.45,19.8,0.36,26.94,0.15c-2.39,0.14,6.21,0.14,3.41,0.33c8.15-0.01,15.62-0.09,14.2-0.32
							c15.01,0.54,30.17-0.44,38.63,0.26c24.21-0.24,46.61-0.41,68.38-0.51c-0.78,0.45-24.07,0.04-23.13,0.52
							c20.66-0.19,32.57-0.57,53.06-0.46c5.3,0.06-3.01,0.2-4.8,0.27c20.64-0.19,39.9,0.04,58.26-0.2
							c-0.03,0.02-0.53,0.04-1.27,0.06c-0.74,0.02-1.7,0.04-2.63,0.06c3.62-0.01,8.42,0.07,8.01-0.14l-3.53,0.06
							c-5.78-0.3,14.37-0.62,15.02-0.78c-6.14,0.59,18.14,0.15,8.38,0.89c2.38-0.04,5.37-0.14,4.82-0.27
							c3.53,0.04,4.66,0.12,1.07,0.28c12.96-0.11,8.36-0.33,20.1-0.33c-0.04,0.1-2.41,0.14-3.63,0.25
							c5.95-0.19,11.92-0.39,21.84-0.3c-0.6,0.06,0.56,0.14-2.41,0.14c17.05-0.03,29.05-0.52,47.75-0.33
							c-5.52,0.43,6.36,0.14,7.35,0.52l10.06-0.11l-4.04-0.18c8.81,0.01,16.59-0.27,24.16-0.14l-6.55,0.15l16.51-0.07l-9.34-0.14
							c8.91-0.19-0.96-0.47,10.77-0.37c-2.38,0.04,8.81,0,13.4,0.22l-0.03,0c4.36-0.12,8.84-0.24,15.35-0.15
							c1.69,0.12-1.36,0.41-0.26,0.49c4.3-0.31,20.63-0.09,26.07-0.42c-1.81,0.08-1.91,0.27-1.31,0.31l3.61-0.25
							c4.08,0.08,4.68,0.12,4.01,0.28c12.27,0.05-3.9-0.47,10.67-0.27c-1.14,0.02-0.6,0.06-2.98,0.1
							c14.63,0.11,28.26-0.16,41.71-0.04c3.97,0.38-11.74,0.09-7.2,0.41c19.38-0.07,40.13-0.45,58.89-0.36l-3.5-0.04
							c2.6-0.53,13.97,0.26,23.45,0.01c-2.32,0.04-3.04,0.29-2.42,0.24c12.85,0.09,26.26-0.13,45.72-0.3l-2.41,0.14
							c7.57,0.12,19.93,0.07,28.11,0.13c2.43-0.14,7.1-0.11,4.26-0.31c8,0.25,15.77,0.29,23.36,0.27
							c7.43-0.07,14.69-0.13,21.84-0.19c0.01,1.95,0.03,3.88,0.04,5.81c0,2.08,0,4.15,0,6.22c-0.02,4.13-0.08,8.23-0.19,12.32
							c0-2.67-0.12-6.38-0.12-4.25l0.13,19.05c0.23-1.51,0.14-2.5,0.32-6.5c0.14,2.41,0.24,7.79,0.24,12.51
							c-0.15-8.57-0.37,0.07-0.5,3.78c0.07-0.62,0.15,0.65,0.22,0.33c-0.41,9.95,0.46,1.67,0.19,15.26l-0.12-0.72
							c0.06,5.09,0.22,9.77,0.19,15.26c-0.27,2.27-0.12-5.41-0.34-5.76c0.02,7.7,0.51,15.2,0.24,22.17
							c-0.04-3.27-0.11-7.98-0.15-11.25c-0.31,7.59-0.23,8.47-0.28,14.11l0.01-0.56l-0.14,13.04l0.09-3.32
							c0.7,9.64,0.13,19.63,0.58,32.62c-0.43-12.62-0.25-2.09-0.55-3.05c-0.08,3.32-0.18,8.36-0.26,6.92
							c0.24,6.14-0.19,10.25,0.16,18.91c-0.1,0.39-0.01,6.57-0.25,5.18c0.08,7.98,0.17-1.89,0.29-1.21
							c0.33,12.3-0.4,28.91,0.05,46.61c0.19,15.26,0.52,18.08,0.68,32.24c-0.16,4.78-0.36-3.91-0.36-3.91
							c-0.14,7.71-0.12,13.51-0.01,20.77c-0.09-1.47-0.16,0.04-0.27,2.26c0.03,5.83,0.36,3.9,0.21,11.59
							c-0.11-1.32-0.28-3.01-0.39-5.82c0.12,6.87,0.24,13.66,0.36,20.77c-0.17,1.89-0.26-4.29-0.37-6.8
							c0.08,7.99,0.15,20.71,0.42,23.18l0.1-5.13c0.01,2.91-0.23,1.5-0.28-0.65c-0.21-6.85,0.09-9.88,0.19-10.27l0.06,5.06
							c0.57-5.2-0.09-20.34-0.06-30.54l0.42,4.25l-0.35-10.46c0.11-2.22,0.34-3.75,0.4,1.29c0.21-7.31-0.15-6.47,0.08-12.75
							c0.04-0.69,0.06-0.38,0.07,0.26l-0.12-7.14c0.09,1.4,0.29-1.19,0.23,3.2c0.24-12.82-0.31-20.67,0-25.5l0.03,1.07
							c-0.14-17.79-0.31-1.72-0.66-15.06l0.75-8.98l-0.31-1.75c0.01-1.84,0.03-5.46,0.16-4.79c-0.21-6.83-0.13,1.16-0.33-2.8
							c0.28-8.83-0.13-24.35,0.36-26.34c-0.23-3.17-0.18,8.45-0.34-0.98c0.52-2.69-0.09-10.9,0.15-18.97
							c0.27,2.48,0.13,10.12,0.37,2.05c-0.46-4.87,0.1-15.71,0.01-22.52c-0.18-0.16-0.22-3.86-0.23-8.95
							c-0.01-5.09,0.02-11.56-0.05-17.27c0.12,0.72,0.2-21.49,0.33-32.11l0.06,0.31c-0.37-2.06-0.3-13.02-0.37-20.99
							c0.22,0.31,0.31,1.75,0.4,6.07l0-7.5c-0.12-1.77-0.18-4.11-0.22-8.97l0.27,1.89c-0.01-4.99-0.09-10.02-0.14-15.4
							c-0.02-2.69-0.03-5.47-0.05-8.38c0-1.46,0.01-2.94,0.01-4.47c0.02-1.7,0.03-3.44,0.05-5.22c-0.06-0.18-0.13,0.49-0.2,1.28
							c-0.02,0.19-0.04,0.4-0.06,0.61c-0.02,0.17-0.04,0.34-0.06,0.51c-0.04,0.34-0.08,0.67-0.11,0.94
							c-0.08,0.54-0.15,0.83-0.22,0.45c-0.03-0.19-0.07-0.54-0.1-1.12c-0.02-0.53-0.05-1.26-0.08-2.25
							c-0.66,0.01-1.67,0.03-2.89,0.06c-0.25-0.07-0.5-0.16-0.25-0.25c0.13-0.04,0.38-0.08,0.83-0.11c0.22-0.01,0.49-0.03,0.82-0.04
							c0.36-0.01,0.79-0.02,1.28-0.03c-0.61,0.01-1.7,0.03-2.94,0.06c-1.19,0.02-2.52,0.03-3.69,0l5.43-0.23
							c-5.86-0.1-3.06,0.19-7.74,0.17c0.09-0.2-3.46-0.14-2.79-0.3c1.19-0.02,4.08,0.08,5.87,0c-5.27-0.04-11.65-0.15-13.76-0.3
							c0.46,0.11,0,0.27-3.86,0.29c-9.98,0.01-3.42-0.24-9.24-0.34c-2.42,0.14-8.79,0-8.95,0.29c-2.92,0-3.46-0.14-4.59-0.22
							c-5.17,0.13-24.13,0.04-18.31,0.35l1.33,0.02c-0.25,0-0.54,0.01-0.84,0.01c0.04,0,0,0,0.04,0h-0.04
							c-16.93,0.29-35.18-0.17-51.98-0.04l0.03-0.1c-10.03,0.11-22.33,0.07-29.49,0.28c-2.97,0-7-0.18-5.73-0.3
							c-7.67,0.07-8.53,0.19-19.6,0.02c7.71-0.17-2.66-0.15,7.9-0.13c-9.96-0.09-12.22-0.24-22.92,0.03
							c3.64-0.25-7.5-0.32-12.24-0.24l6.98,0.18c-5.32,0.04-9.98,0.01-14.71-0.01l2.56-0.33c-20.39-0.4-36.77,0.69-52.29,0.01
							c-5.39,0.23,11.07,0.16,6.25,0.44c-9.38-0.04-19.15-0.52-22.09-0.52c-12.85-0.18-11.99,0.49-25.43,0.36
							c1.72,0.12,3.34,0.44-6.7,0.55c-9.39-0.04-11.54-0.5-5.61-0.59c2.25-0.01,3.34,0.03,3.24,0.07c3.03-0.04,7.01-0.09,3.3-0.22
							l-1.22,0.12c-4.66-0.12-17.57-0.11-14.54-0.3c-7.09,0.11-3.03,0.19,2.22,0.26c-12.04-0.17-18.81-0.01-31.2-0.12
							c1.97,0.07,3.78,0.2,1.82,0.2c-18.17-0.15-8,0.23-20.32,0.28c-7-0.18,2.51-0.43-9.89-0.28c-7.57-0.12-1.6-0.31,1.41-0.41
							c-11.29,0.23-21.1-0.15-27.55-0.19l5.95-0.1c-3.56,0.06-6.47,0.06-9.44,0.05l3.4,0.24c-1.75-0.02-3.36-0.04-4.53-0.05
							c-1.17-0.02-1.89-0.04-1.86-0.09c-3.6,0.16,2.75,0.39-4.39,0.61c-4.66-0.12-14.18,0.13-15.79-0.19
							c14.65,0.11-1.62-0.32,10.78-0.37c-2.39,0.04-5.31,0.04-8.81-0.01c-0.53-0.04,0.5-0.07,1.45-0.08
							c-14.01-0.28-6.44,0.36-20.96,0.35c1.84-0.18-3.37-0.34-5.74-0.3c5.85,0,2.8,0.3-2.57,0.43c-9.31-0.14-10.12,0.1-15,0.09
							l5.57,0.06c-1.89,0.18-6.54,0.15-13.03,0.21c-0.56-0.14,5.89-0.1,3.58-0.16c-7.21,0.31-16.29-0.32-26.34-0.11
							c-4.66-0.12-0.45-0.33-4.54-0.42c-11.26,0.23-12.2-0.24-24.04-0.05c3.41,0.24,4.01,0.18-4.33,0.41l19.46-0.17l-12.49,0.35
							c5.87,0,12.4-0.15,15.91-0.11c-5.95,0.19-5.34,0.14-2.53,0.33c-8.04-0.36-15.94,0.21-25.23-0.03l0.28-0.59
							c-13.97-0.26-24.82,0.3-42.96,0.15l5.83,0.1c-2.43,0.23-11.2,0.03-17.07,0.13c0.55-0.2-3.12-0.27-5.63-0.39
							c0.3,0.15-13.28-0.01-14.92,0.38l-8.1-0.26c-14.65-0.11-16.71,0.56-30.79,0.5c4.24-0.21-2.16-0.35,7.27-0.51
							c-2.35,0-4.58,0-6.24,0c-1.65,0.01-2.73,0.03-2.77,0.1c-2.75-0.12-13.03,0.27-17.36,0.08c-1.98,0.09-2.63,0.29-7.91,0.28
							c-0.58-0.04,0.02-0.1,0.02-0.1c-0.02,0.1-8.26,0.13-3.65,0.35c-14.48-0.62-40.47,0.04-53.08-0.48
							c-10.26,0.05-22.62,0.1-31.93,0.14c0.6-0.06,0.03-0.1,1.79-0.08c-12.85-0.18-7.9,0.57-22.52,0.36
							c-7.47-0.32,7.76-0.17,3.11-0.29c-2.03-0.65-17.64,0.09-27.48-0.29l2.38-0.04c-7.52-0.22-18.35,0.25-30.63,0.2
							c0,0,0.6-0.06,0.07-0.1c-8.4,0.33-24.31,0.44-36.13,0.53c3.68-0.25,5.37-0.13,3.12-0.39c-5.3,0.04,1.55,0.41-9.02,0.49
							c-3.44-0.14-11.07-0.26-12.08-0.54l9.97-0.01c-5.11-0.36-12.91,0.01-18.17-0.05l0.67-0.16c-15.29,0.05-15.5,0.44-31.93,0.42
							l1.7,0.12c-8.98,0.39-7.53-0.22-16.48,0.07l-2.71-0.39c-5.92,0.1-20.75,0.38-31.38,0.46c6.02-0.29,18.45-0.44,26.15-0.62
							c-5.87,0-19.96,0.03-23.02,0.22c2.37-0.04,5.35-0.13,7.69-0.07c-7.2,0.31-16.68,0.46-28.39,0.46
							c0.68-0.25-2.35-0.36-7.03-0.41C13.53,25.76,6.9,25.73,0.7,25.7c-0.01,1.84-0.02,3.65-0.03,5.39
							c-0.02,1.47-0.04,2.88-0.05,4.19c-0.05,2.61-0.11,4.8-0.22,6.27c0.28,20.7-0.12,41.07-0.08,65.19
							c0.6-8.55,0.02,7.04,0.63,5.56c0.04,5.62,0.03,7.76-0.01,8.26l-0.37,17.02c-0.18,4.04-0.13-5.34-0.27-4.83
							c-0.05,12.3-0.26,5.16-0.42,13.3c0.22-1.67,0.31,4.28,0.23,11.29l0.28-9.87c0.33,17.19-0.51,14.86-0.19,32.18l-0.19-5.48
							c0.11,8.89,0,32.8,0.49,41.51c-0.07,1.57-0.24,3.65-0.28-0.26c-0.07,21.25,0.52,47.3,0.22,63.81l-0.15-1.61
							c0.04,3.96,0.28,6.9,0.13,11.86c-0.06-0.26-0.15-1.6-0.16,0.24c0.05,2.1,0.26,10.53,0.17,15.78l-0.17-4.49
							c-0.2,20.73,0.41,31.81,0.51,49.19c-0.22-0.02-0.36,4.01-0.46,9.07c-0.04,2.53-0.08,5.32-0.12,7.98
							c-0.03,3.17-0.05,6.19-0.07,8.62c0.08,0,0.13,0,0.19,0L0.1,375.9l-0.04-0.3c0,0.12,0,0.24,0,0.34
							c6.52-0.01,12.56-0.03,18.32-0.04c5.31-0.05,10.36-0.1,15.36-0.15c10-0.11,19.78-0.23,30.92-0.35
							c13.87,0.48,46.99,0.2,69.29,0.47c-3.41-0.08,0.56-0.34,4.52-0.39c5.23,0.09,14.46-0.31,13.63,0.1l-1.87-0.01
							c3.94,0.4,14.7,0.29,23.09,0.3l1.38-0.53c21.96,0.77,57.54-0.28,69.53,0.41c5.3-0.08,11.86-0.18,17.12-0.26l-0.28,0.28
							c14.68,0.07,22.01,0.11,40.16,0.04l-3.7,0.2c10.24,0.02,12.93-0.82,22.37-0.83l2.84,0.42c17.86-0.01,35.94,0.36,53.59-0.02
							c-0.29,0.06-0.81,0.18-3.71,0.2c8.41,0.01,32.52,0.29,29.47-0.29c0.1,0.19,4.71,0.2,10.5,0.14c5.79-0.09,12.75-0.2,17.58-0.27
							l-1.5,0.28c8.14-0.36,8.4-0.45,19.77-0.55c2.7,0.04,2.36,0.22-1.22,0.15c8.98,0.15,7-0.26,17.88-0.12l-4.06,0.18
							c9.24,0.02,8.5-0.07,13.59-0.28c5.81-0.11,17.52,0.07,18.89,0.32c1.24-0.15,6.3-0.36,11.75-0.29c0.73,0.1-1.25,0.15-2.24,0.18
							c15.45,0.19,22.97-0.32,33.59-0.05c0.22,0.09,0.91,0.14,1.79,0.17c-12.27-0.01-22.15-0.02-21.23-0.04
							c0,0.26,9.91,0.3,2.03,0.66c7.96-0.19,21.56-0.61,31.22-0.49c0.47,0.02,0.93,0.05,1.28,0.09l-1,0.03
							c2.23,0.03,4.23,0,6.11-0.04c3.08,0.03,5.04,0.05,8,0.08c1.14,0.21,11.37,0.11,16.31,0.12c-0.41-0.28,6.06-0.24,0-0.47
							c0.78,0.02-0.93,0.03-4.22,0.05c-0.74,0.01-1.62,0.02-2.11,0.03c0.1-0.01,0.21-0.02,0.34-0.02c-3.24,0-7.48,0.01-12.28,0.02
							c3.9-0.14,7.98-0.26,13.45-0.11c2.54-0.17,5.33-0.35,6.9-0.45c6.76,0.39,19.8,0.6,21.61,0.85c15.09-0.16,35.55-0.1,45.04-0.63
							c4.29-0.07,4.93,0.15,6.54,0.23c-2.48,0.05-5.42,0.04-6.76,0.12c8.58-0.14,25.42-0.05,27.46-0.42
							c10.81,0.17-6.08,0.34,8.78,0.28l-2.01,0.11c29.23,0.59,47.52-0.94,79.92-0.18c-2.24-0.05-3.37-0.07-3.83-0.13
							c36.94,0.33,76.13-0.31,112.59,0.22c10.36,0.11,11.48-0.13,17.81-0.31l2.24,0.3l10.81-0.35c15.33-0.26,26.55,0.74,45.96,0.26
							l-2.5-0.2c6.97,0.04,22.08-0.12,20.92,0.11c0.71-0.04,2.29-0.21,5.01-0.11l0.21,0.16l17.13-0.27
							c13.28,0.11-2.08,0.63,17.3,0.66c7.2-0.06,20.51-0.46,17.8-0.57c-2.91-0.01-7.43-0.1-7.64-0.26l6.59-0.08
							c1.19-0.47,6.26-0.94-9.91-1.27l-11.27,0.28l-3.63-0.23l9.48-0.01c-5.38-0.21-8.79-0.02-12.61,0.1
							c-0.9-0.12-2.49-0.2-4.72-0.25l-11.06,0.44c-1.34-0.18,4.96-0.36-2.46-0.46c-5.18,0.21,4.97,0.41-3.61,0.54
							c-5.39-0.21-3.82-0.38-10.14-0.2c-0.89-0.12,0.45-0.2,2.96-0.25c-5.63,0.14-14.9,0.06-17.81,0.31
							c-5.62-0.26-19.01,0.07-18.46-0.37c-1.77,0.11-9.92,0.35-15.09,0.36c9.45-0.53-19.36-0.03-16.86-0.6
							c-6.99,0.47-25.26,0.21-37.65,0.47c0.69-0.04,2.05-0.11,3.15-0.09c-6.97-0.04-9-0.18-13.48-0.27
							c-0.9,0.39-11.75,0.48-17.61,0.72c-8.55-0.38,5.19-0.46,2.51-0.82c0.43,0.32-14.85,0.32-11.94,0.58
							c-6.54-0.23-5.63-0.11-9-0.44c-1.15,0.49-6.09,0.08-11.51,0.38c-9.46-0.24-2.44-0.46-12.83-0.31
							C785.71,373.08,794.95,372.9,794.95,372.9z M547.84,373.75L547.84,373.75c2.13-0.01,3.94-0.02,5.1-0.02
							C551.88,373.73,550.41,373.74,547.84,373.75z M527.07,373.76c2.53,0,5.68,0.01,9.01,0.01c0.73,0.1-0.06,0.2-2.15,0.19
							C535.06,373.89,530.17,373.84,527.07,373.76z M571,375.7c-3.29,0.04-4.39-0.02-4.84-0.07c1.55-0.01,3.37-0.02,5.75-0.03
							c0.1-0.01,0.29-0.03,0.39-0.03C571.98,375.62,571.62,375.67,571,375.7z"/>
						<path class="st1" d="M576.91,375.33c0.47-0.01,0.74-0.01,1.36-0.02c-0.67-0.02-1.31-0.04-1.96-0.06
							c-0.4,0.03-0.81,0.06-1.16,0.09C575.73,375.34,576.35,375.34,576.91,375.33z"/>
						<path class="st1" d="M960.53,26.08l-0.44-0.01c0.36,0.01,0.7,0.02,0.92,0.04C960.72,26.1,960.72,26.1,960.53,26.08z"/>
						<polygon class="st1" points="240.32,373.22 240.35,373.29 242.17,373.23 						"/>
						<path class="st1" d="M1024.95,75.9c-0.02,0.22-0.05,0.65-0.07,1.5C1024.9,77.34,1024.93,76.69,1024.95,75.9z"/>
						<path class="st1" d="M1024.89,125.31l-0.1,6.99C1024.83,129.27,1024.86,127.07,1024.89,125.31z"/>
						<path class="st1" d="M1024.75,163.29c0.05,0.48,0.09,0.62,0.12,0.74c0-0.03,0-0.05,0-0.07L1024.75,163.29z"/>
						<path class="st1" d="M558.33,27.58c-0.51,0-1.01,0.01-1.47,0.01C553.43,27.65,555.76,27.63,558.33,27.58z"/>
						<path class="st1" d="M738.06,26.92c-1.91,0.04-3.79,0.09-5.78,0.13C735.49,27.08,737.97,27.08,738.06,26.92z"/>
						<path class="st1" d="M357.63,27.92c0.02,0,0,0,0.02,0c-0.43,0-0.81,0-1.24,0L357.63,27.92z"/>
						<path class="st1" d="M723.93,27.05c3.2,0.06,5.87,0.04,8.36,0C729.66,27.04,726.57,27.01,723.93,27.05z"/>
						<path class="st1" d="M1024.62,327.93l-0.01,1.83c0.02-0.03,0.03,0.08,0.05,0.22L1024.62,327.93z"/>
						<path class="st1" d="M1024.66,329.98l0.03,2.03C1024.69,331.08,1024.69,330.27,1024.66,329.98z"/>
						<path class="st1" d="M1024.76,336.29l-0.07-4.28C1024.69,333.49,1024.68,335.32,1024.76,336.29z"/>
						<path class="st1" d="M1024.75,277.65l-0.1-0.58C1024.67,277.38,1024.71,277.59,1024.75,277.65z"/>
						<path class="st1" d="M1024.72,262.36c-0.02,3.64-0.22,9.14-0.15,14.23l0.08,0.47C1024.5,274.68,1024.9,265.83,1024.72,262.36z
							"/>
						<path class="st1" d="M1025.98,198.58l-0.08,12.8c0.11-2.24,0.25-5.18,0.28,0.64C1026.51,195.89,1025.94,215.36,1025.98,198.58
							z"/>
						<path class="st1" d="M1026.14,158.88c0.05,6.88,0.16-0.08,0.22,0.28C1026.26,154.8,1026.24,153.74,1026.14,158.88z"/>
						<path class="st1" d="M870.95,25.86l0.69-0.26C866.34,25.64,871.59,25.7,870.95,25.86z"/>
						<polygon class="st1" points="816.1,27.18 821.26,27.34 823.72,27.1 						"/>
						<polygon class="st1" points="783.7,25.36 786.01,25.32 777.17,25.41 						"/>
						<path class="st1" d="M301.8,25.45l1.6,0.31C306.99,25.71,307.74,25.35,301.8,25.45z"/>
						<path class="st1" d="M93.76,25.77c-2.27-0.16-8.12-0.26-11.72-0.1C86.72,25.69,91.38,25.81,93.76,25.77z"/>
						<polygon class="st1" points="185.15,375.74 180.97,375.85 188.85,375.76 						"/>
					</g>
				</g>
			</g>
		</g>
	</g>
</g>
<g id="Layer_1">
</g>
<g id="Layer_4">
	<text transform="matrix(1 0 0 1 63.8897 192.6052)"><tspan x="0" y="0" class="st2 st3">Curriculum</tspan><tspan x="0" y="56.4" class="st2 st3">Vitae</tspan></text>
</g>
<g id="Layer_3">
	<text transform="matrix(1 0 0 1 618.8896 144.6052)"><tspan x="0" y="0" class="st2 st4">María</tspan><tspan x="0" y="70.8" class="st2 st4">Dolores</tspan><tspan x="0" y="141.6" class="st2 st4">Barrutia</tspan></text>
</g>
<g id="Layer_2">
	
		<linearGradient id="SVGID_2_" gradientUnits="userSpaceOnUse" x1="347.1217" y1="234.9311" x2="474.5925" y2="234.9311" gradientTransform="matrix(0.761 -0.1619 0.2388 1.1225 31.9918 3.943)">
		<stop  offset="0" style="stop-color:#AFD1EE"/>
		<stop  offset="0.5" style="stop-color:#A7CDEC"/>
		<stop  offset="1" style="stop-color:#51A9DD"/>
	</linearGradient>
	<polygon class="st5" points="488.48,375.31 421.48,375.31 313,27 379,27 	"/>
</g>
</svg>
